<?xml version="1.0" encoding="utf-8"?>
<!-- Generator: Adobe Illustrator 16.0.0, SVG Export Plug-In . SVG Version: 6.00 Build 0)  -->
<!DOCTYPE svg PUBLIC "-//W3C//DTD SVG 1.1//EN" "http://www.w3.org/Graphics/SVG/1.1/DTD/svg11.dtd">
<svg version="1.1" xmlns="http://www.w3.org/2000/svg" xmlns:xlink="http://www.w3.org/1999/xlink" x="0px" y="0px" width="42px"
	 height="20px" viewBox="0 0 42 20" enable-background="new 0 0 42 20" xml:space="preserve">
<g id="Layer_1">
</g>
<g id="Artboard_Two">
	<path fill="#333333" d="M20,15.102C20,17.807,18.031,20,15.602,20H4.398C1.969,20,0,17.807,0,15.102V4.898C0,2.193,1.969,0,4.398,0
		h11.203C18.031,0,20,2.193,20,4.898V15.102z"/>
	<path fill="#333333" d="M42,15.102C42,17.807,40.031,20,37.602,20H26.398C23.969,20,22,17.807,22,15.102V4.898
		C22,2.193,23.969,0,26.398,0h11.203C40.031,0,42,2.193,42,4.898V15.102z"/>
	<g>
		<g>
			<path fill="#FFDF00" d="M30.757,15.131c0.463,0.568,0.425,1.363-0.08,1.775l-0.136,0.113c-0.508,0.411-1.292,0.286-1.755-0.283
				l-3.723-4.571c-0.46-0.567-0.427-1.362,0.082-1.773l0.136-0.113c0.506-0.411,1.292-0.286,1.755,0.281L30.757,15.131z"/>
		</g>
		<g>
			<path fill="#FFDF00" d="M32.064,15.764c-0.888,1.151-2.055,1.74-2.607,1.316l-0.15-0.115c-0.549-0.426-0.277-1.702,0.611-2.855
				l7.156-9.278c0.888-1.15,2.055-1.74,2.607-1.314l0.149,0.115c0.551,0.425,0.279,1.702-0.61,2.856L32.064,15.764z"/>
		</g>
	</g>
</g>
</svg>
